<?xml version="1.0" encoding="UTF-8"?>
<svg version="1.1" xmlns="http://www.w3.org/2000/svg" width="330" height="39">
<path d="M0 0 C7.84697383 -0.10159983 15.69377737 -0.17154999 23.54125977 -0.21972656 C26.2098681 -0.2375524 28.87761523 -0.26708675 31.54614258 -0.30175781 C35.38634076 -0.35039508 39.22595575 -0.37299739 43.06640625 -0.390625 C44.25520889 -0.41127014 45.44401154 -0.43191528 46.6688385 -0.45318604 C53.35872775 -0.45498964 57.58030901 -0.03960927 63 4 C67.25274121 8.36716474 68.81980339 13.54976499 69.1328125 19.54296875 C68.83961978 24.967034 67.10367954 28.69301107 63.625 32.8125 C56.36986841 38.858443 49.31504961 39.85647307 40.07421875 39.6171875 C34.63580122 39.12083899 31.58806846 36.22529758 27.91796875 32.359375 C26.96857422 31.19148438 26.96857422 31.19148438 26 30 C25.39800781 29.30390625 24.79601562 28.6078125 24.17578125 27.890625 C23.78777344 27.26671875 23.39976563 26.6428125 23 26 C23.33 25.01 23.66 24.02 24 23 C33.24 22.67 42.48 22.34 52 22 C52 20.02 52 18.04 52 16 C50.24526367 16.00954712 50.24526367 16.00954712 48.45507812 16.01928711 C44.08607366 16.03379255 39.71837292 16.00224796 35.34960938 15.95727539 C33.46423799 15.94419151 31.57873814 15.94335004 29.69335938 15.95532227 C11.98979592 16.05357143 11.98979592 16.05357143 6.875 11.578125 C5.87857698 10.41704916 4.91318582 9.22761867 4 8 C3.175 7.278125 2.35 6.55625 1.5 5.8125 C0 4 0 4 0 0 Z " fill="#FF2F07" transform="translate(0,0)"/>
<path d="M0 0 C3.91076317 2.02280853 6.22357623 4.68345534 8.4375 8.4375 C9.4574184 13.08379494 9.48303111 16.70344282 7.8125 21.1875 C5.20995401 25.22593343 2.55880664 27.48039779 -2 29 C-7.61875724 29.3684431 -11.15711379 29.19190228 -16 26 C-20.17949495 21.36866776 -21.36008143 18.50600867 -21.28125 12.38671875 C-20.81168513 8.40193907 -19.39117868 6.23132254 -17 3 C-11.64575871 -0.90317761 -6.41254083 -1.05179241 0 0 Z M-14 11 C-14.91666667 14.5 -14.91666667 14.5 -14 18 C-11.51600203 21.15336625 -11.51600203 21.15336625 -8 23 C-3.98826373 23.16046945 -2.57363241 22.52834564 0.375 19.8125 C2.32531424 16.43695612 2.71869773 14.83305454 2 11 C-0.45594125 7.67725596 -1.9256644 6.22381992 -6 5.375 C-10.10703441 6.23063217 -11.55401113 7.61878009 -14 11 Z " fill="#FF2F07" transform="translate(140,5)"/>
<path d="M0 0 C2.20770805 -0.08165496 4.41630425 -0.13948488 6.625 -0.1875 C7.85476562 -0.22230469 9.08453125 -0.25710937 10.3515625 -0.29296875 C15.55673693 0.12500564 18.77853217 1.67949423 22.3125 5.5 C25.14397449 9.69477702 25.33763378 13.01990172 25 18 C23.26348526 22.66117115 21.18637476 25.30875908 17 28 C13.38405704 28.93769368 9.97664679 29.13507202 6.25 29.125 C4.80367187 29.12886719 4.80367187 29.12886719 3.328125 29.1328125 C1 29 1 29 0 28 C-0.08767112 25.92737924 -0.10695873 23.85179706 -0.09765625 21.77734375 C-0.09443359 20.51728516 -0.09121094 19.25722656 -0.08789062 17.95898438 C-0.07953403 16.61848891 -0.07106907 15.27799412 -0.0625 13.9375 C-0.0574866 12.59310058 -0.05292342 11.2486994 -0.04882812 9.90429688 C-0.03699488 6.60282059 -0.02050971 3.30143197 0 0 Z M7 6 C7 11.28 7 16.56 7 22 C13.65955404 22.76665773 13.65955404 22.76665773 16.4375 19.875 C18.26836859 16.50620179 18.64250722 14.77472994 18 11 C16.54331238 8.54285631 16.54331238 8.54285631 14 7 C11.69 6.67 9.38 6.34 7 6 Z " fill="#FF2F07" transform="translate(220,5)"/>
<path d="M0 0 C4.43118719 2.13646525 7.2290203 4.37577522 9 9 C9.52740476 13.8565188 9.6097851 18.31412355 7.9375 22.9375 C4.00078089 27.12820099 0.19890278 29.21797239 -5.5 29.5 C-10.31290583 29.26181865 -13.13609665 27.85928848 -17 25 C-20.03438782 21.25758836 -20.75301218 17.77509787 -21 13 C-20.3145969 8.58295777 -19.37209159 5.99416351 -16 3.125 C-10.72206031 -0.61354061 -6.37782745 -0.64859262 0 0 Z M-13.15234375 10.2109375 C-14.65149627 13.37504742 -13.9783495 15.75921729 -13 19 C-11.32315598 21.64764845 -10.14861139 21.95477045 -7.125 22.875 C-3.34930535 23.02602779 -1.91861492 22.35110647 1 20 C2.91399936 17.47700084 3.00400861 16.19241321 2.9375 13 C1.73922801 9.16552962 0.45830634 7.99813255 -3 6 C-7.86941824 4.98553787 -10.17982971 6.17749402 -13.15234375 10.2109375 Z " fill="#FF2F07" transform="translate(174,5)"/>
<path d="M0 0 C3.5578125 -0.0928125 3.5578125 -0.0928125 7.1875 -0.1875 C8.29387817 -0.22846802 8.29387817 -0.22846802 9.42260742 -0.27026367 C13.83935173 -0.32573392 16.52119467 0.27164994 20 3 C22.47342266 6.71013399 22.38503486 8.61060262 22 13 C21.03126968 14.35622245 20.03565785 15.69417053 19 17 C19.22247027 19.37301622 19.94723341 20.90067466 21.0625 23 C22 25 22 25 22 29 C20.02 29 18.04 29 16 29 C15.68546875 28.36191406 15.3709375 27.72382812 15.046875 27.06640625 C14.61890625 26.24011719 14.1909375 25.41382812 13.75 24.5625 C13.33234375 23.73878906 12.9146875 22.91507813 12.484375 22.06640625 C11.01047374 19.54473322 11.01047374 19.54473322 7 19 C7 21.97 7 24.94 7 28 C4.69 28 2.38 28 0 28 C0 18.76 0 9.52 0 0 Z M7 6 C7 8.31 7 10.62 7 13 C9.91652174 13.16681109 9.91652174 13.16681109 13 13 C13.66 12.34 14.32 11.68 15 11 C14.59471099 8.21762345 14.59471099 8.21762345 13 6 C11.00041636 5.95919217 8.99954746 5.95745644 7 6 Z " fill="#FF3007" transform="translate(190,5)"/>
<path d="M0 0 C16.26315789 0 16.26315789 0 21 4 C23.96225345 8.10893221 24.53041419 11.87185587 24.35546875 16.8203125 C23.66741097 21.03939205 21.28510716 23.69326844 18.375 26.65234375 C14.92271399 28.61128894 11.59746344 28.3190339 7.75 28.1875 C5.1925 28.125625 2.635 28.06375 0 28 C0 18.76 0 9.52 0 0 Z M6 6 C6 11.28 6 16.56 6 22 C12.50035912 22.62961047 12.50035912 22.62961047 15.4375 20.4375 C17.58879747 17.08147594 17.48947291 14.91578329 17 11 C16.16666667 8.5 16.16666667 8.5 14 7 C11.29635095 6.37074835 8.78974201 6.1829339 6 6 Z " fill="#FF2F07" transform="translate(90,5)"/>
<path d="M0 0 C2.64 0 5.28 0 8 0 C9.42842911 3.66452852 10.85247676 7.33072569 12.27246094 10.99853516 C12.99441847 12.86060415 13.71985238 14.72132407 14.4453125 16.58203125 C14.89648438 17.74863281 15.34765625 18.91523438 15.8125 20.1171875 C16.23144531 21.19597168 16.65039062 22.27475586 17.08203125 23.38623047 C18 26 18 26 18 28 C14.625 28.1875 14.625 28.1875 11 28 C9 25 9 25 9 22 C5.7 22 2.4 22 -1 22 C-1.66 23.98 -2.32 25.96 -3 28 C-5.31 28 -7.62 28 -10 28 C-7.46277869 18.38272302 -3.66846291 9.22643548 0 0 Z M3 10 C2.67 11.98 2.34 13.96 2 16 C3.32 16 4.64 16 6 16 C5.34 14.02 4.68 12.04 4 10 C3.67 10 3.34 10 3 10 Z " fill="#FF3007" transform="translate(258,5)"/>
<path d="M0 0 C1.98 0 3.96 0 6 0 C6 3.63 6 7.26 6 11 C9.63 11 13.26 11 17 11 C17 7.37 17 3.74 17 0 C18.98 0 20.96 0 23 0 C23 9.24 23 18.48 23 28 C21.02 28 19.04 28 17 28 C17 24.37 17 20.74 17 17 C13.37 17 9.74 17 6 17 C6 20.63 6 24.26 6 28 C4.02 28 2.04 28 0 28 C0 18.76 0 9.52 0 0 Z " fill="#FF3008" transform="translate(307,5)"/>
<path d="M0 0 C2.80694338 0.54769627 4.26369065 1.6116286 6.40234375 3.46875 C5.74234375 4.78875 5.08234375 6.10875 4.40234375 7.46875 C1.43234375 7.46875 -1.53765625 7.46875 -4.59765625 7.46875 C-4.59765625 8.12875 -4.59765625 8.78875 -4.59765625 9.46875 C-3.98277344 9.72269531 -3.36789062 9.97664062 -2.734375 10.23828125 C-1.92613281 10.58246094 -1.11789062 10.92664062 -0.28515625 11.28125 C0.51535156 11.61769531 1.31585938 11.95414063 2.140625 12.30078125 C4.43379987 13.48499418 5.83507358 14.42534712 7.40234375 16.46875 C8.17904278 23.45904126 8.17904278 23.45904126 5.52734375 26.90625 C1.31196522 30.00579303 -2.47683341 30.12922464 -7.59765625 29.46875 C-9.95950793 28.37166271 -11.56287671 27.1383127 -13.59765625 25.46875 C-12.93765625 24.14875 -12.27765625 22.82875 -11.59765625 21.46875 C-8.08115069 21.46875 -5.04276599 21.86960048 -1.59765625 22.46875 C-0.93765625 22.46875 -0.27765625 22.46875 0.40234375 22.46875 C-0.60188093 19.85449119 -1.20206972 18.68794627 -3.69140625 17.30859375 C-4.48546875 17.01082031 -5.27953125 16.71304687 -6.09765625 16.40625 C-9.63118537 15.06970408 -10.40638213 14.75566118 -12.59765625 11.46875 C-13.19449908 7.54663999 -12.90731665 5.94356262 -10.72265625 2.59375 C-6.89665433 -0.0079313 -4.51783046 -0.05568974 0 0 Z " fill="#FF2F07" transform="translate(292.59765625,4.53125)"/>
</svg>
